<svg xmlns="http://www.w3.org/2000/svg" viewBox="0 0 120 180" role="img" aria-label="Boy">
  <ellipse cx="60" cy="166" rx="35" ry="8" fill="#6aa56a" opacity=".32"/>
  <circle cx="60" cy="43" r="25" fill="#ffd7a1" stroke="#bf8a58" stroke-width="3"/>
  <path d="M35 39c6-28 48-29 51 2-17-7-34-3-51-2Z" fill="#4d2c22"/>
  <path d="M36 79h48l8 52H28Z" fill="#28a678"/>
  <path d="M35 88 17 116M85 88l18 28" stroke="#ffd7a1" stroke-width="10" stroke-linecap="round"/>
  <path d="M48 131v29M72 131v29" stroke="#2c5ca8" stroke-width="11" stroke-linecap="round"/>
  <path d="M41 163h16M64 163h16" stroke="#ffffff" stroke-width="9" stroke-linecap="round"/>
  <circle cx="51" cy="45" r="3" fill="#24304a"/><circle cx="69" cy="45" r="3" fill="#24304a"/>
  <path d="M51 57c7 5 12 5 18 0" fill="none" stroke="#24304a" stroke-width="3" stroke-linecap="round"/>
</svg>
