<svg xmlns="http://www.w3.org/2000/svg" viewBox="0 0 120 150" role="img" aria-label="Yellow flower">
  <path d="M61 63v66" fill="none" stroke="#2f9b50" stroke-width="8" stroke-linecap="round"/>
  <path d="M58 96c-18-6-28 5-34 18 18 6 30-2 34-18Z" fill="#55b967"/>
  <path d="M64 101c19-7 29 5 34 18-18 6-30-2-34-18Z" fill="#45a95d"/>
  <g fill="#ffd84e">
    <ellipse cx="60" cy="35" rx="12" ry="25"/>
    <ellipse cx="60" cy="89" rx="12" ry="25"/>
    <ellipse cx="33" cy="62" rx="25" ry="12"/>
    <ellipse cx="87" cy="62" rx="25" ry="12"/>
    <ellipse cx="41" cy="43" rx="12" ry="23" transform="rotate(-45 41 43)"/>
    <ellipse cx="79" cy="43" rx="12" ry="23" transform="rotate(45 79 43)"/>
    <ellipse cx="41" cy="81" rx="12" ry="23" transform="rotate(45 41 81)"/>
    <ellipse cx="79" cy="81" rx="12" ry="23" transform="rotate(-45 79 81)"/>
  </g>
  <circle cx="60" cy="62" r="16" fill="#7b4e25"/>
  <ellipse cx="60" cy="134" rx="42" ry="7" fill="#7fcf75" opacity=".45"/>
</svg>
