<svg xmlns="http://www.w3.org/2000/svg" viewBox="0 0 150 170" role="img" aria-label="Running child">
  <ellipse cx="76" cy="157" rx="46" ry="8" fill="#6aa56a" opacity=".32"/>
  <circle cx="74" cy="36" r="22" fill="#ffd7a1" stroke="#bf8a58" stroke-width="3"/>
  <path d="M53 34c7-23 38-23 44 1-15-6-29-4-44-1Z" fill="#5a3326"/>
  <path d="M57 66h42l8 45H48Z" fill="#3f7dd9"/>
  <path d="M55 75 28 91M99 75l29-14" stroke="#ffd7a1" stroke-width="10" stroke-linecap="round"/>
  <path d="M64 109 39 143M87 109l33 31" stroke="#24304a" stroke-width="11" stroke-linecap="round"/>
  <path d="M33 145h18M115 143h18" stroke="#ffffff" stroke-width="9" stroke-linecap="round"/>
  <circle cx="66" cy="38" r="3" fill="#24304a"/><circle cx="82" cy="38" r="3" fill="#24304a"/>
  <path d="M66 49c6 4 11 4 16 0" fill="none" stroke="#24304a" stroke-width="3" stroke-linecap="round"/>
</svg>
