<svg xmlns="http://www.w3.org/2000/svg" viewBox="0 0 240 180" role="img" aria-label="Banana tree"><defs><filter id="s" x="-20%" y="-20%" width="140%" height="140%"><feDropShadow dx="0" dy="4" stdDeviation="4" flood-color="#20314f" flood-opacity="0.18"/></filter></defs><g filter="url(#s)"><path d="M106 68c-1 31-8 63-21 90h39c-11-28-16-58-14-91z" fill="#86542b"/><path d="M112 63c-33-30-66-21-90-3 39-4 62 2 90 3z" fill="#2fa755"/><path d="M116 60c10-39 47-48 83-40-36 9-57 24-83 40z" fill="#44bb67"/><path d="M111 68c38 5 57 21 75 49-35-13-59-27-75-49z" fill="#2d9952"/><path d="M135 82q16 24 2 46" stroke="#f2ce3f" stroke-width="8" fill="none" stroke-linecap="round"/><circle cx="134" cy="84" r="5" fill="#f0d24d"/></g></svg>
