<svg xmlns="http://www.w3.org/2000/svg" viewBox="0 0 1600 900" role="img" aria-label="Jungle background"><defs><linearGradient id="sky" x1="0" x2="0" y1="0" y2="1"><stop stop-color="#a7efd4"/><stop offset=".48" stop-color="#57b86b"/><stop offset="1" stop-color="#1f6a3c"/></linearGradient><radialGradient id="sun" cx=".2" cy=".08" r=".55"><stop stop-color="#fff8bf" stop-opacity=".8"/><stop offset=".45" stop-color="#fff8bf" stop-opacity=".14"/><stop offset="1" stop-color="#fff8bf" stop-opacity="0"/></radialGradient></defs><rect width="1600" height="900" fill="url(#sky)"/><rect width="1600" height="900" fill="url(#sun)"/><path d="M0 620c190-99 305-50 472-88 199-45 293-147 511-89 179 47 310 17 455-58 68-35 122-52 162-52v567H0z" fill="#1b7746" opacity=".9"/><path d="M0 733c214-82 385-31 555-67 175-37 291-98 464-48 195 57 364-26 581-84v366H0z" fill="#2f9b51"/><path d="M0 804c186-45 371 8 557-27 229-43 381 7 570-26 182-32 312-72 473-28v177H0z" fill="#5bbf55"/><g opacity=".62" fill="#155f35"><path d="M90 900V410c48 65 72 164 64 490z"/><path d="M128 900V438c66 106 104 224 93 462z"/><path d="M1360 900V370c-58 78-86 188-76 530z"/><path d="M1410 900V444c-75 108-119 230-103 456z"/></g><g opacity=".65" stroke="#143f2c" stroke-width="20" stroke-linecap="round" fill="none"><path d="M130 0c54 148 74 271 20 406"/><path d="M1470 0c-90 162-112 304-20 456"/><path d="M710 0c-22 128-4 240 70 334"/></g></svg>
