<svg xmlns="http://www.w3.org/2000/svg" viewBox="0 0 240 180" role="img" aria-label="Purple jungle flower"><defs><filter id="s" x="-20%" y="-20%" width="140%" height="140%"><feDropShadow dx="0" dy="4" stdDeviation="4" flood-color="#20314f" flood-opacity="0.18"/></filter></defs><g filter="url(#s)"><path d="M120 82v72" stroke="#2e8b45" stroke-width="8" stroke-linecap="round"/><path d="M118 129c-27-17-49-10-63 12 25 5 46-1 63-12z" fill="#39a85b"/><path d="M122 128c30-15 50-9 63 12-25 6-45 1-63-12z" fill="#2d9850"/><g transform="translate(120 69)"><g fill="#8b5cf6"><ellipse rx="16" ry="27" transform="rotate(0) translate(0 -30)"/><ellipse rx="16" ry="27" transform="rotate(60) translate(0 -30)"/><ellipse rx="16" ry="27" transform="rotate(120) translate(0 -30)"/><ellipse rx="16" ry="27" transform="rotate(180) translate(0 -30)"/><ellipse rx="16" ry="27" transform="rotate(240) translate(0 -30)"/><ellipse rx="16" ry="27" transform="rotate(300) translate(0 -30)"/></g><circle r="14" fill="#ffe36a"/></g></g></svg>
