<svg xmlns="http://www.w3.org/2000/svg" viewBox="0 0 240 180" role="img" aria-label="Red jungle flower"><defs><filter id="s" x="-20%" y="-20%" width="140%" height="140%"><feDropShadow dx="0" dy="4" stdDeviation="4" flood-color="#20314f" flood-opacity="0.18"/></filter></defs><g filter="url(#s)"><path d="M120 82v72" stroke="#2e8b45" stroke-width="8" stroke-linecap="round"/><path d="M118 127c-30-18-52-13-67 9 27 6 49 0 67-9z" fill="#42b768"/><path d="M123 124c30-18 53-12 68 10-28 7-50 1-68-10z" fill="#37a85e"/><g transform="translate(120 68)"><g fill="#ec4d4d"><ellipse rx="17" ry="27" transform="rotate(0) translate(0 -31)"/><ellipse rx="17" ry="27" transform="rotate(72) translate(0 -31)"/><ellipse rx="17" ry="27" transform="rotate(144) translate(0 -31)"/><ellipse rx="17" ry="27" transform="rotate(216) translate(0 -31)"/><ellipse rx="17" ry="27" transform="rotate(288) translate(0 -31)"/></g><circle r="13" fill="#ffd85a"/></g></g></svg>
