<svg xmlns="http://www.w3.org/2000/svg" viewBox="0 0 240 180" role="img" aria-label="Palm tree"><defs><filter id="s" x="-20%" y="-20%" width="140%" height="140%"><feDropShadow dx="0" dy="4" stdDeviation="4" flood-color="#20314f" flood-opacity="0.18"/></filter></defs><g filter="url(#s)"><path d="M114 62c-2 34-8 69-22 99h45c-14-30-21-65-22-99z" fill="#8b5a2b"/><path d="M112 66c-28-32-60-20-82-5 34-5 54 1 82 5z" fill="#23924d"/><path d="M116 62c4-43 34-54 72-50-32 14-50 32-72 50z" fill="#1f8446"/><path d="M116 66c28-29 63-20 84-2-32-5-55 0-84 2z" fill="#2cac5f"/><path d="M112 62c-5-42-34-55-70-52 29 15 49 34 70 52z" fill="#2dba66"/><ellipse cx="116" cy="160" rx="62" ry="10" fill="#3e8f42"/></g></svg>
