<?xml version="1.0" encoding="UTF-8" standalone="no"?>
<svg xmlns:rdf="http://www.w3.org/1999/02/22-rdf-syntax-ns#" xmlns="http://www.w3.org/2000/svg" height="1995pt" width="880pt" version="1.1" xmlns:cc="http://creativecommons.org/ns#" xmlns:dc="http://purl.org/dc/elements/1.1/" viewBox="0 0 880 1995">
<g>
<path d="m387.33 19.091c-0.3252 0.0175-0.684 0.1025-1.0828 0.26875-16.2 2.21-34.35 2.2703-49 8.6703-11.37 14.09 4.1994 27.891 13.709 37.091 7.98 16.03-1.2594 34.3 1.6406 51.27 2.03 6.82-4.0706 11-7.6406 15.65-26.97 32.07-63.679 54.33-90.619 86.25 3.11 18.58 7.2091 37.06 10.139 55.68-11.74 30.19-32.83 55.229-55.45 78.089-18.37 11.62-36.569 23.551-55.109 34.891-46.85 17.99-94.85 34.479-145.47 37.359 2.28 24.41 28.53 40.52 29.05 65.82-0.22 9.4-1.37 19.49 4 27.87 11.38 0.57 18.73-9.4403 25.68-16.82 26.75-24.64 64.891-27.409 97.391-40.689 48.31-5.68 96.75-15.61 145.3-16 12.88 19.64 33.089 37.35 40.359 58.8-22.96 50.96-46.099 102.28-72.659 151.29-22.82 48.62-53 93.81-71.57 144.42-11.14 29.25-24.989 57.841-30.009 88.991-10.08 53.02-18.78 106.43-22.85 160.28-0.31 33.33 10.69 65.259 21.08 96.509 15.67 45.8 46.29 86.77 87.8 112.2 43.05 25.4 85.35 52.09 128.18 77.82 51.64 22.94 101.96 50.579 142.59 90.409 34.11 24.87 53.289 64.5 63.389 104.57 13.16 51.37 15.52 107.73-3.2 158.13-10.78 14.07-22.46 27.631-34.4 40.711-19.61 11.95-40.07 22.58-60.05 33.93-43.59 11.06-89.429 15.731-134.06 8.0406-14.99-5.43-30.11-10.51-45.13-15.87-38.12-20.64-68.901-59.19-70.461-103.7-5.87-24.43 15.981-42.25 25.561-62.45 16.13-8.54 41.909-1.1506 47.389 17.659-0.09 3.41-0.3003 11.64-5.0203 9.1703-5.48-7.75-6.4797-22.45-18.23-23.03-9.36 4.38-7.0591 16.71-8.0891 24.95-8.37 2.65-18.971-6.3706-26.191 1.2094-4.86 7.74 3.7003 15.551 8.3203 21.261-0.25 10.39-14.03 16.509-9.2297 28.359 7.6 3.6 16.329 2.8997 24.459 3.8797 8.74 5.58 7.0306 16.71 11.541 24.67 7.48 3.67 15.67-4.4106 23.15-0.3906 3.16 4.7 5.6494 9.86 8.7094 14.65 8.2-2.4 13.31-9.8091 19.8-14.789 9.72-2.47 18.05 7.8 27.55 3.7 5.63-4.36 1.6197-15.43 9.5297-17.85 8.14-1.17 16.88 1.0194 24.55-2.7906 1.4-8.79-0.1594-17.529-1.3594-26.189 17 4.24 23.03-22.321 7.7203-27.481 5-7.77 17.43-7.44 25.58-11.85-0.78-12.62-19.87-13.459-19.23-26.139 4.15-7.75 12.379-14.04 11.209-23.87-9.1-7.25-26.291-6.7797-26.241-21.63 2.31-11.62 11.711-21.21 10.211-33.78-11.5-0.37-21.771 8.4594-33.541 5.2094-5.86-10.47-10.26-21.77-13.38-33.3-11.26 0.29-20.43 10.091-31.9 9.7906-9.25-7.54-5.9094-23.251-16.959-29.781-10.62 2.1-17.721 10.81-26.261 16.47-12.05-0.11-17.709-14.569-29.289-16.609-6.44 8.54-9.5109 27.31-23.861 22.05-9.64-7.75-18.379-18.71-32.139-17.85 0.31 10.96 5.1194 23.53-0.3406 33.67-15.36 8.82-30.16-13.061-45.55-4.7812 0.44 10.09 3.4406 20.581-0.25936 30.591-9.34 6.14-21.47-3.5303-31.12 2.3297 1.87 8.92 7.44 16.381 11.05 24.561 5.38 20.99-25.051 5.3-29.611 20.3 6.15 9.09 7.9613 21.84 5.5313 32.6-7.84 7.56-20.661 5.3194-29.941 10.359 4.61 14.58 22.27 21.72 22.72 37.62-5.26 9.26-23.471 7.7794-22.341 21.809 8.33 8.54 23.41 13.95 24.33 27.57-2.35 13.77-19.519 18.81-24.559 30.98 10.96 10.58 38.68 13.281 35.08 34.061-6.01 10.49-21.67 17.87-15.03 32.58 15.38 3 34.6 3.35 42.53 19.85 10.95 14.71-9.4194 28.51-1.5094 43.55 14.32-1.47 34.159-9.9003 43.789 5.4797 2.58 10.39-5.5194 21.351 1.2906 31.391 16.21-0.42 28.74-18.831 45.43-10.611 11.39 8.98 11.281 25.061 9.3406 38.191 16.37 1.94 27.61-18.481 44.53-11.391 12.01 7.42 9.3803 23.37 13.82 34.97 15.18 2.93 23.44-13.33 36.75-15.97 18.94-0.45 16.26 25.311 28.8 34.011 11.65-7.18 22.48-26.021 38.17-19.341 7.46 7.93 3.9288 23.37 17.819 26.3 11.34-7.07 12.111-25.61 25.641-29.48 15.1-2.45 17.581 19.189 28.991 23.189 9.94-6.72 13.319-21.659 25.759-24.639 13.94-2.77 24.15 8.0894 33.9 15.959 9.89-2.61 10.92-15.65 18.02-21.72 8.22-9.56 21.26-21.389 34.7-14.369 5.8 7.84 13.45 15.169 23.8 15.889 3.33-16.09 8.4991-34.86 25.239-41.9 9.59-6.56 24.031 7.6197 31.731-2.3203 3.59-14.68 9.3988-32.34 24.719-38.65 10.71-4.12 20.981 2.04 31.331 3.95-1.2-11.52-4.63-24.739 3.45-34.619 9.07-10.65 23.8-11.03 36.55-13.02-3.6-19.5-5.5706-42.27 7.5594-58.75 6.74-9.17 22.37-0.1606 27.75-10.791 3.24-16.38-12.309-32.929-1.2094-48.889 1.38-13.98 19.729-12.43 22.939-25.17-2.33-13.7-15.129-26.621-8.5891-41.161 5.59-6.03 16.999-8.03 18.589-17.45-3.7-14.22-14.729-28.459-8.6891-43.639 2.49-7.98 14.19-10.36 15.6-17.93-9.2-8.92-22.85-19.081-20.15-33.681 0.99-11.81 16.89-16.44 15.08-29.18-7.88-4.56-20.39-3.04-23.7-13.55-1.56-16.98 14.239-27.279 20.659-41.289-6.39-9.16-25.039-5.01-28.339-18.1-5.65-12.71 7.3891-23.331 9.4391-35.361-10.58-5.86-23.82-11.059-27.07-23.989-4.01-9.43 13.99-12.33 8.3-22.07-4.86-9.25-20.46-5.9309-24.98-16.361-6.5-13.63 7.3903-24.639 9.0203-37.689-10.96-3.12-24.591-2.1303-32.191-12.27-4.89-13.04 14.781-18.661 10.731-32.291-9.33-3.72-20.791-1.4897-29.181-7.4297-0.69-5.37-2.57-13.77 3.85-16.07 23.89-9.54 49.351-0.2994 73.591 1.6406 3.6-25.81-11.78-53.729 1.6203-78.359 9.23-16.43 27.37-24.58 44.38-30.45 8.74-2.18 11.091-15.731 3.1906-20.161-9.21-2.61-20.221 1.8809-28.331-4.4891-12.39-5.6-12.169-23.37-2.9594-31.67 11.46-13.45 34.88-20.491 34.22-41.311-14.28 0.29-28.49 5.6903-42.77 2.9203-5.86-3.69-9.1094-11.97-5.7594-18.37 6.56-15.18 19-28.039 18.53-45.709-18.75-3.07-29.71 22.039-48.07 12.159-14.71-11.86-9.0506-35.84 2.0094-48.5 7.84-8.56 0.5403-27.3-12.03-19.18-9.33 13.04-15.84 29.53-31.67 36.6-7.91 5.38-19.159 0.78064-22.989-7.4594-8.12-13.84-10.82-30.13-9.45-46-0.67-5.68-9.31-17.02-14.4-8.55-11.53 12.41-14.19 29.69-20.17 44.93-9.65 26.58-30.069 48.159-53.259 63.709-10.47 7.23-28.91 6.131-34.07-6.939-7.46-13.09 14.829-24.88 5.3594-36.95-14.72-10.47-9.7197-30.88-1.2297-43.87-20.94-4.28-12.631-29.211-3.0406-41.041-4.28-4.53-10.15-7.7097-12.83-13.58-1.35-7.47 8.2106-10.929 7.7406-18.159-4.72-7.78-10.721-15.031-13.361-23.891-2.59-10.5 11.85-10.79 15.15-18.9 5.95-7.39-5.2388-14.01-4.3688-21.87-1.63-12.86 13.259-17.29 18.109-27.13 0.9-9.72-15.461-13.68-9.8906-23.88 7.68-5.95 19.911-5.7106 24.241-16.141-0.76-11.8-21.24-16.33-17.72-29.33 6.71-10.9 23.84-6.4403 32.78-11.12-4.46-13.07-14.859-25.82-9.8391-40.65 5.82-11.65 24.489-0.55 28.159-13.7 4.26-10.18-9.7294-15.14-11.859-23.68 3.11-11.19 20.619-10.699 22.209-22.889-0.73-10.01-23.37-19.65-7.1-25.77 7.31-3.39 20.48-7.66 16.38-18-5.5-11.8-10.6-26.03-2.2797-37.9 4.74-12.82 21.96-5.1603 28.57-16.57-7.67-9.14-21.199-17.82-16.409-31.72 5.02-6.64 14.04-7.2994 21.2-10.309-1.01-11.21-8.7-19.801-12.9-29.741-2.16-16.04 23.8-20.16 21.45-36.25-12.07-8.01-28.61-15.849-29.65-32.589-1.28-16.47 10.029-30.391 17.169-44.161-11.52-9.65-29.969 0.48093-38.859-13.289-10.56-21.11 1.1403-44.32 0.8203-66.45-13.17-1.99-25.95 11.519-38.37 3.2094-17.33-15.62-10.73-41.959-10.63-62.459-14.12-1.44-20.491 13.719-31.691 17.589-17.96-6.7-20.31-30.72-21.57-47.03-1.35-6.06-13.069-15.93-15.709-5.8203-5.35 13.91-19.221 33.85-36.341 24.7-12.36-10.2-15.599-31.149-34.269-33.489-5.44 12.51-7.68 27.29-18.55 36.6-13.52 8.53-33.891 1.4891-40.641-12.761-13.38-21.84-16.18-47.9-23.98-71.87-0.8487-1.8988-1.4608-5.0912-3.7375-4.9688zm186.69 809.58c0.058 0.71888 0.1511 1.4358 0.2797 2.1469-0.1286-0.71112-0.222-1.428-0.2797-2.1469zm-182.65 695.47c-1.5774 0.089-3.1583 0.1241-4.7406 0.094 1.5823 0.031 3.1632-0.01 4.7406-0.094z"/>
<path fill="#ef4458" d="m379.85 30.003c-2.7028 0.03375-5.3975 0.21875-8.075 0.55625-9.27 1.93-19.681 1.4503-28.161 5.3203-1.56 15.76 22.151 22.051 19.431 39.341-3.18 19.14 2.0488 40.399-4.9312 58.009 35.84-3.18 74.831-4.1097 106.11 16.47 18.26 8.86 15 33.101 14.12 49.541-2.53 28.26-32.101 45.419-35.141 73.019 9.43 10.98 28.93 7.2306 36.62 20.991 25.98 42.77 15.79 96.2 8.3 142.88-0.22 8.45-6.4409 16.331-6.6109 24.161 26.71 12.76 55.871-3.3503 77.361-19.42 23.42-22.67 54.25-35.28 85.47-42.73 15.8-1.67 35.209 6.1897 47.389-7.3703-2.03-9.91-12.529-17.791-9.2094-28.941 0.29-12.15 16.3-16.13 18.23-26.32-14.08-8.13-28.52-21.419-26.48-39.359-0.83-13.3 7.1797-24.38 11.43-36.18-10.94-1.18-25.399-0.15093-30.859-12.011-12.58-18.09-3.7709-40.649-3.4609-60.669-8.06 1.45-16.309 6.7194-24.509 2.9094-23.49-7.36-25.45-37.511-23.78-57.791-6.83-0.22-9.0806 11.63-17.591 10.35-22.37 1.16-32.79-26.36-33.08-45.13 2.75-6.18-3.9906-5.2991-4.6906-1.7891-7.09 14.61-24.7 27.13-41.12 19.65-13.78-4.28-15.77-22.711-26.38-29.361-6.14 9.65-7.97 22.84-18.1 29.98-15.17 11.47-37.659 6.0106-50.039-7.2094-17.7-22.71-19.371-52.86-29.541-78.88-0.9025-0.0225-1.8038-0.02844-2.7047-0.01719zm101.54 572.36c-25.44 39.93-67.871 65.331-112.83 77.441-15.7-0.74-31.28 1.9794-46.9 1.7094-15.37-2.16-20.599-20.83-31.419-28.4-23.65 42.51-45.211 86.221-66.941 129.73 32.3 28.63 59.959 64.089 99.009 83.989 22.39 7.5 46.391-0.61936 69.141-2.1594 17.81-18.79 28.11-43.28 38.5-66.72 19.72-53.18 40.48-106.07 56.58-160.49 3.02-10.9 3.9009-28.63-5.1391-35.1zm86.28 194.12c-14.95 25.58-37.6 45.421-63.55 59.491-13.7 9.72-32.7-1.4506-46.18 9.0594-15.71 12.02-39.431 5.0397-54.631 10.53 31.77 32.53 48.861 79.39 42.061 124.65 5.21 36.28 0.5494 73.96 4.5094 109.75 8.74 3.91 14.92-8.7694 20.97-13.109 12.06-13.45 28.771-21.671 46.341-24.491 19.74-36.49 62.6-60.569 67.53-104.49-3.67-12.4 4.4394-22.531 7.8594-33.461-13.16-10.27-12.799-29.189-7.9094-43.589-0.83-6.32-7.1409-10.89-8.3109-17.38-1.45-9.99 3.8403-18.981 6.6203-28.211-10.17-8.58-12.06-21.89-4.08-32.48-1.95-5.75-4.82-16.3-11.23-16.27zm118.01 231.99c-15.56 15.11-34.42 27.299-55.9 31.609-22.68 1.88-45.689-6.1194-62.689-21.159-4.59-2.73-1.9706 7.3791 1.8094 7.1391 28.2 9.66 46.451 34.851 68.641 53.341 5.72 3.98 9.95 13.74 18.25 11.32 6.44-9.97 18.729-11.4 28.559-16.32 12.33-2.14 7.5397-18.38 14.18-26.03-0.54-12.69 4.46-37.4-12.85-39.9zm115.93 427.46c-1.4113 0.045-2.7334 0.2681-3.8265 0.6656-7.87 1.95-16.27 4.3603-22.18 10.12-4.33 17.53-24.64 22.869-32.57 38.339-4.98 11.5-18.27 19.251-21.43 30.431 12.39 28.21 29.16 55.629 33 86.719-1.99 33.09-12.46 65.341-27.75 94.631-15.99 29.88-47.54 45.2-73.92 64.1 15.62 5.96 32.241 21.08 25.711 39.48-8.26 10.52-22.72 17.85-24.47 32.38 0.97 8.58 12.409-0.6906 16.459 4.9094 6.27 1.25 4.0009 12.481 9.9609 12.011 7.33-17.43 26.79-27.64 45.2-22.9-2.52-23.94 18.709-40.55 40.739-42.15-0.72-20.86-2.6197-48.37 17.57-61.52 5.11-5.91 18.221 0.6303 19.791-7.0297-11.36-23.25-5.2509-56.51 19.939-67.53-2.16-13.24-13.36-25.521-8-39.581-1.39-12.46 23.791-12.33 16.241-24.98-9.23-17.19-10.901-40.78 4.8594-54.03-16.39-14.78-21.11-41.751-2.9797-57.041-12.23-2.63-23.619-14.009-20.309-27.239 1.8769-6.8331-5.9184-9.9822-12.034-9.7859zm-480.35 16.456c-8.63 4.42-14.63 13.72-25.03 14.63-10.13 14.32-34.729 40.039-6.8891 50.939 9.9-3.5 23.149 7.6303 17.719 17.02-10.56 7.21-27.269 8.1903-32.059 22.12 22.09-3.86 47.86-5.7706 66.27 9.6094 16.24 13.64 17.65 36.57 18.63 56.15 0.16 7.08 9.3497 11.09 14.88 7.0203 12.18-7.73 16.78-25.24 32.55-27.4 3.74-8.29 14.48-9.6597 20.47-14.43-5.86-5.34-15.54-12.36-12.12-22.08 0.92-6.84 9.3709-10.621 9.0609-17.441-6.49-5.47-17.941-4.08-20.981-13.5-7.25-10.85 0.1412-22.429 3.2812-33.009-8.29 1.5-16.701 2.85-25.161 1.9-6.59-9.34-9.9397-20.561-15.18-30.661-10.81 1.23-22.439 12.601-32.209 3.2812-9.1-4.89-6.4012-18.89-13.231-24.15zm-96.13 102.98c-8.29 2.24-15.629 7.5097-24.239 8.6297-9.97 1.74-15.591-11.78-25.841-7.2203-14.15 5.19-29.201-0.25-43.691-0.9 0.98 11.07 5.8309 23.401-0.78907 33.711-4.91 7.58-15.26 6.6597-21.85 11.23 8.24 8.64 18.31 18.63 16.32 31.78 0.51 10.66-14.18 11.909-18.8 18.259 9.04 8.12 22.68 16.441 20.73 30.891 1.37 11.34-10.9 16.38-15.02 25.22 14.86 2.41 29.419 11.269 44.509 8.7391 11.78-8.95 8.6606-27.539 9.3406-40.589-17.83-28.53 4.1494-61.671 23.009-83.291 11.92-17.2 35.621-19.95 52.841-24.57-5.39-3.09-11.13-8.6691-16.52-11.889zm67.861 174.72c-8.04 28.37 13.55 56.699 40.63 63.319 30.09 7.24 60.72 11.79 91.03 17.95 40.97 9.34 86.72 19.18 125.43-2.4297-31.63-21.65-69.769-31.209-104.54-46.739-26.77 0.33-53.931 1.9194-80.561-2.1406-25.14-6.91-50.809-15.269-71.989-29.959z"/>
<path fill="#b8e1cf" d="m399.48 140.42c-2.4246-0.0105-4.8453 0.0491-7.2547 0.17656-14.14 3.65-32.371-4.0494-43.041 8.7906-15.82 13.41-34.579 26.06-48.989 39.5 29.2 10.34 63.27 13.25 86.83 36.08 22.3 15.42 26.57 50.219 11.68 71.789-16.66 10.35-42.351 7.83-49.541 30.45-8.76 11.64 6.4409 21.051 11.711 29.931 7.69 17.72 6.4491 37.939 2.8891 56.519-7.72 15.93-22.31 28.621-38.83 34.181 11.74 15.32 22.68 31.54 35.22 46.13 35.91-11.42 72.161-21.921 107.99-33.611 8.14-7.65 9.5688-19.559 12.369-29.859 6.23-42.54 15.18-90.42-7.15-129.78-8.55-15.36-35.619-8.4997-40.039-27.23 0.49-27.29 27.15-43.81 34.23-68.97 3.03-13.78 4.0703-29.691-2.4797-42.611-18.315-14.754-42.158-21.384-65.595-21.486zm-71.966 85.073c-2.5416 0.0348-5.0997 0.38095-7.6297 1.0734-17.51 3.14-30.51 21.98-27.03 39.48 1.68 16.67 17.28 30.76 34.1 30.08 20.12 1.73 38.33-17.98 36.02-37.78-0.7-18.095-17.67-33.097-35.461-32.853zm-3.5735 21.958c13.438 0.19168 23.075 18.7 13.074 29.436-7.55 11.09-26.019 7.5688-30.609-4.5312-4.25-9.09 1.8606-21.559 11.591-23.789 2.0288-0.79625 4.0256-1.143 5.9453-1.1156zm338.82 159.59c-1.0226 0.0377-2.1487 0.18282-3.3906 0.44531-36.35 1.28-71.32 18.549-97.57 43.309-21.77 15.22-48.629 28.54-75.909 21.25 9.6 18 26.78 33.231 29.88 54.291 0.55 23.19-12.041 43.759-23.761 62.769-4.08 4.76 0.09 10.311 1.7703 15.081 9.35 20.21-1.2194 42.409-6.2094 62.359-11.84 35.9-25.06 71.34-38.25 106.77-11.47 31.73-24.3 63.44-44.22 90.93 16.67-0.42 34.82 2.3997 49.37-7.7203 14.58-10.84 34.9 0.0606 49.35-10.809 28.87-15.33 49.63-40.411 65.2-68.661 2.98-7.63 18.399-9.2394 12.359-19.309-8.21-15.41 1.5206-30.369 13.591-39.659-4.81-6.98-15.04-17.23-7.8-25.85 3.27-9.4 15.769-7.5412 20.739-14.331-3.86-8.95-17.879-13.64-14.859-25.55-0.94-14.9 16.759-18.23 27.809-20.6-4.89-14.47-13.029-37.11 4.9312-45.98 4.7-4.81 14.899-0.37969 17.319-6.5797-4.62-6.28-12.019-12.12-10.689-20.8 2.25-10.08 13.899-13.541 20.459-19.641-2.42-8.66-16.079-14.25-10.959-25.45 0.36-12.29 27.74-8.53 19.92-22.05-11.54-19.49-0.15-51.179 21.65-54.709-13.238-6.7031-5.3899-30.071-20.73-29.505zm-595.57 18.27c-15 4.01-32.561 3.8412-46.141 8.4812 10.4 19.59 28.779 38.219 25.959 62.239 0.7 2.59-2.3688 12.5 3.2312 9.3797 6.78-9.06 15.86-15.799 24.4-23.009 3.85-17.81 4.34-44.121-7.45-57.091zm151.21 369.05c-8.79 21.97-17.31 44.11-25.87 66.19-12.73 54.19-20.96 109.41-27.18 164.65 17.82 13.29 34.7 28.099 53.65 39.839 10.77 7.8 21.34-3.7491 29.88-9.2391 19.94-14.77 36.641-40.831 64.961-36.661 26.12-3.4 41.539 22.76 65.089 27.6 32.56-9.66 67.69-42.609 58.02-79.709-3.65-35.14-21.09-67.63-46.35-91.78-20.86 1.33-41.61 4.499-62.43 6.389-43.78-18.92-72.92-60.35-109.77-87.32zm486.92 81.361c-12.52 22.84-15.201 51.01-33.991 70.62-18.58 22.52-48.879 52.839-79.409 32.719-11.25 17.95 14.829 27.111 28.489 25.731 31.21-6.07 50.981-36.6 66.491-60.7 8.14 15.9 28.781 28.57 46.091 17.88 4.17 14.26 13.65 27.96 29.93 29.1-0.63 14.51 1.9991 32.86 17.939 38.93-14.37 13.97-14.829 40.839 2.9109 52.309-2.14 5.39-9.3903 7.74-12.72 12.7-16.85 14.5-12.93 39.371-11.17 59.011-13.62-0.88-27.76-1.9809-41.03 1.8391-18.61 3.44-23.271 31.801-45.091 27.531-14.81-5.3-30.689-2.0603-45.689-2.9703-20.51-25.19-46.221-45.441-69.241-68.241-13.2-14.35-32.73-19.319-51.13-23.039-17.52-4.77-30.151 15.409-39.541 25.619 18.32 4.98 38.271 6.7706 54.381 17.691 9 7.28 17.729 14.91 25.709 23.3 23.89 24.79 53.68 44.5 71.83 74.38 21.57 2.93 44.201-2.3894 65.361 4.6906 15.77 4.67 27.799-10.091 39.619-17.741 15-30.45 55.24-19.24 81.67-16.77-1.03-23.95-7.8197-49.21 2.0703-72.4 12.73-16.92 31.289-28.14 51.309-34.18-5.3-5.35-17.949 1.31-24.469-5.55-20.95-7.2-22.191-37.139-6.4109-49.989 7-7.66 17.521-12.731 23.611-20.231-11.41-1.95-34.66 6.9512-40.05-10.719-10.68-17.34 7.5491-33.691 13.139-49.241-11.42 8.37-26.199 14.51-39.859 7.1703-15.95-11.26-15.671-33.38-9.9906-50.17-11.53 12.26-27.88 28.33-46.27 19.47-19.91-11.97-21.559-39.36-24.489-58.75zm-79.38 395.25c3.56 43.32-11.641 85.19-19.681 127.3-3.17 21.79-24.92 32.239-38.13 46.739 40.39 58.2 54.011 132.45 45.041 202.09-1.21 17.56 23.08 20.869 32.62 9.5594 39.07-43.69 74.999-103.13 58.609-164.07-11.76-77.18-48.26-146.99-75.47-219.37-0.14-1.64-1.6391-2.03-2.9891-2.25zm-367.35 321.56c-18.39 7.11-40.151 6.28-56.131 18.95-15.58 16.19-30.39 35.13-34.43 57.78 0.43 14.89 9.3909 27.631 16.761 39.961 25.69 40.86 52.649 83.02 93.019 110.95 16.06 12.9 37.471 5.4 55.731 3.8-20.4-5.59-37.79-19.82-47.67-38.77-9.18-16.36 5.9103-39.47-9.8297-52.47-28.49-25.51-39.341-65.67-37.311-102.87 4.77-11.91 19.251-28.04 19.861-37.33zm387.7 198.1c-1.8528-0.013-3.6918 0.2397-5.4656 0.7984-22.21 6.27-40.891 20.73-59.341 34.07-29.07 15.53-57.91 31.751-88.28 44.641-13.12 7.23-28.719 0.7988-42.159 6.2688 2.18 13.72 9.8288 27.51 5.2188 41.72-1.22 15.47-17.76 21.59-29.9 26.05 1.35 5.11 4.5603 12.151 6.5703 16.641 8.17-8.22 12.521-25.391 27.411-24.791 13.38-3.3 19.729 11.09 27.759 17.87 7.3-4.45 9.9397-16.029 19.93-17.859 14.67-7 28.63 3.8397 41.92 8.7797 9.86-15.46 24.53-33.311 44.67-32.811 10.74-1.19 15.229 10.29 23.239 13.87 4.85-20.79 23.17-43.82 46.6-38.38 10.26 2.96 3.7912-11.919 3.4812-17.259-2.13-10.54-16.1 3.5097-19.72-6.5203-12.25-18.94 9.13-35.45 21.3-47.43 3.3775-12.442-10.265-25.567-23.234-25.659z"/>
</g>
<path fill="#99d0b9" d="m289.53 197.28c36.43 8.48 78.06 15.26 102.54 46.81 2.82 13.93 4.72 28.93 2.36 43.09-11.86 10.6-30.85 7.57-42.54 18.76-6.24 9.29-14.18 18.6-15.75 30.09 1.38 10.1 10.43 16.95 15.94 24.93 9.95 24.39 8.66 62.51-21.91 70.29-55.76 5.15-111.54 11.5-167 19.85-23.36 6.77-46.3 15.01-69.33 22.85-3.05-17.68-5.23-35.63-6.63-53.49 23.97-9.04 49.13-15.14 72.5-25.73 26.36-18.05 57.3-30.9 76.17-57.85 18.28-16.62 28.01-39.37 38.73-61.05-2.49-15.11-5.84-30.12-8.39-45.24-5.01-15.81 15.34-22.79 23.31-33.31m34.07 21.26c-15.78 1.47-30.44 12.27-35.68 27.36-8.79 20.58 2.77 46.62 23.53 54.65 23.66 10.75 53.8-5.61 58.07-31.12 6.6-26.85-18.65-54.59-45.92-50.89z"/>
<path fill="#fe8542" d="m324.5 252.82c-1.1822 0.0156-2.4515 0.21876-3.8031 0.6422-14.74 0.7-12.66 28.001 3.3797 24.611 16.271 0.54391 14.373-25.437 0.4234-25.253zm143.87 217.63c-34.03 10.7-68.29 20.72-102.3 31.48-3.79 0.09-5.7409 3.18-7.0609 6.15-18.2 39.62-36.539 79.16-55.489 118.42-3.36 7.04-10.18 15.35-2.6297 22.47 7.88 9.39 14.42 26.78 30.1 22.13 39.43 5.53 75.719-13.991 107.61-34.491 26.96-27.26 54.18-56.84 65.92-94.23 7.89-21.06-10.081-39.129-20.361-55.539-5.16-5.05-8.2891-15.121-15.789-16.391zm218.91 490.02c-13.83 18.96-29.969 37.61-51.239 48.53-17.29 8.08-37.8 3.3003-51.9-8.7797-1.8 4.12-7.8109 9.5094-3.0609 13.609 14.12 13.45 36.08 18.21 54.43 11.6 20.7-6.98 34.53-24.53 49.4-39.37 4.49 2.16 8.4912 5.8906 13.581 6.6406 13.65-2.31 20.399 11.28 28.969 19.05 2.44 11.01 15.281 19.96 9.1812 31.92-3.55 11.1 0.3088 22.46 3.3188 33.18-3.98 7.14-12.119 12.081-11.819 21.291-3.2 9.44 0.7988 27.289-14.531 24.489-8.65 0.53-16.239 4.8106-24.189 7.7406-8.82 3.03-8.76 16.089-18.65 17.639-11.03-2.56-22.71-1.3294-33.6-2.7094-14.94-17.22-33.2-31.081-48.93-47.541-13.14-13.13-28.391-25.069-46.831-29.319-11.03-5.85-16.049 8.5388-21.139 15.619 20.14 2.63 37.72 13.66 51.45 28.22 19.52 20.34 42.289 37.48 60.009 59.55 14.93 0.23 30.11-0.6794 44.55 3.8906 10.05-1.33 18.201-9.8809 22.661-18.761 13.95-12.17 33.299-11.98 50.819-11.15-0.71-22.81 0.6512-48.6 21.231-62.85-11.74-13.9-10.591-33.079-4.0312-48.889-5.42-12.02-14.38-22.71-12.95-36.83-12.54-1.65-19.659-13.271-25.819-23.091-15.68 3.31-29.861-4.9097-40.911-13.68zm-249.95 54.4c-0.2834 0.01-0.6025 0.055-0.9625 0.1391-10.61 17.75-28.961 30.281-47.341 39.031-18.85 7.47-35.16-9.5306-50.17-17.841-12.93-9.81-30.459-9.5794-45.169-4.5594-22.59 13.8-38.74 38.35-64.87 46.2-25.78-3.97-42.771-28.271-64.761-39.941-3.86 32.07 7.0809 63.899 16.911 94.109 7.41 29.32 27.02 53.191 42.32 78.691 18.62 17.22 36.719 35.631 59.539 47.391 15.54 13.74 35.41 0.9188 51.78-4.4812 46.88-15.23 82.56-54.829 104.45-97.639 2.38-43.51-1.6288-87.41 0.031-131.08-1.4156-2.4656 2.494-10.178-1.7578-10.02zm290.27 213.9c-14 3.8-24.26 23.39-40.32 16.02-19.38-6.6-39.929-4.8897-60.059-4.9797 0 2.79 0.2994 5.8191 1.5094 8.4391 19.14 46.67 38.23 93.361 56.62 140.34 18.02 40.56 25.759 84.66 32.659 128.23-0.13 1.62 2.1303 2.98 3.1203 1.3 11.24-13.17 18.97-29.39 33.67-39.35 7.03-4.77 10.31-12.77 13.9-20.07 13.89-8.67 32.82-17.58 48.37-8 4.62-3.64 10.569-9.4291 11.789-15.439-8.43-4.95-21.45-5.6497-22.35-17.83-7.86-11.78 2.92-23.521 5.1-35.081-12.35-6.71-25.319-17.42-23.619-33.08-3.72-6.17 11.679-12.13 2.6688-15.03-11.79-3.15-21.869-13.599-21.589-26.209-0.7-8.17 5.7597-14.23 6.8797-21.92-12.7-3.53-30.209-9.76-28.759-26.1-2.26-8.53 7.9997-12.211 9.5797-18.991-10.42-1.17-23.02-4.28-29.17-12.25zm-12.359 319.61c-5.21 31.17-19.621 60.099-38.891 84.919-10.26 13.55-18.961 29.731-34.691 37.781-10.82 3.08-22.149 0.2888-32.439-2.8312-3.81 28.2-26.68 46.481-43.68 67.261-18.18 11.84-37.961 21.179-56.591 32.359-12.44 8.45-29.27 6.5903-42.02 11.82 33.4 11.71 65.471 26.77 96.341 43.97 13.89-4.44 25.34-15.9 37.57-23.88 36.13-21.83 74.999-40.811 105.62-70.391 23.56-31.55 37.291-71.51 38.091-110.75-5.65-24.04-15.949-51.199-29.309-70.259zm-393.08 38.45c11.89 12.15 13.08 33.089-3.3 42.209-9.2-3.21-12.93-12.601-16.15-20.891-5.04 3.19 0.39 17.641-9.25 18.531-5.77 4.32-25.1-6.0909-14.48 5.3891 9.21 7.79-0.5403 18.96-4.0703 26.85 16.58 0.74 28.171 10.59 32.081 26.77 10.16 1.06 22.709-1.6897 28.159 10.12 9.9-11.81 23.97-10.1 37.23-6.5 1.37-14.19 16.93-22.001 29.62-17.511 4.58-7.59-3.17-15.469-2.35-22.989 2.68-7.24 10.42-6.92 16.72-8.45 3.37-9.02-13.101-9.9503-16.661-3.6703-8.76 13.7-23.719 31.511-41.769 22.641-10.99-11.35-6.59-28.531-10.7-42.661-1.19-14-11.701-25.989-25.081-29.839zm-146.77 126.78c1.01 10.97-1.61 23.09-11.75 29.07-10.22 8.33-22.461 1.0091-33.391-0.9109 10.57 11.94 10.9 32.44-3.9203 41.58-9.96 7.42 5.4497 9.2903 10.53 9.6703 24.87 4.8 39.27 34.14 26.37 56.15 13.23 0.41 37.171-3.2891 43.841 14.811 4.61 6.46-1.9997 17.68 1.6203 21.6 14.24-7.65 29.229-10.721 45.219-8.1109 16.3-16.42-17.39-29.999-6.9297-47.409 2.4-5.94 17.791-9.3403 8.2609-15.37-32.95-27.66-57.09-68.33-79.85-101.08z"/>
<path fill="#fdf6bf" d="m685.48 997.58c-12.44 13.7-26.279 27.02-43.609 34.22-22.92 10.38-51.33 3.4403-69-13.83-5.4 2.57-11.56 11.65-3.9 15.97 28.89 31.06 81.679 25.909 108.69-5.2812 13.3-17 29.421 10.08 25.491 23.22 3.9 15.44-5.14 27.99-7.5 42.58-11.25 7.78-28.7 7.2712-35.78 20.831-12.78 5.53-20.351-8.5403-28.911-15.32-21.24-17.87-38.65-42.181-66.25-50.661-7.99-1.68 0.091-13.33-5.1391-16.1-6.34 8.77-16.72 15.77-20.3 25.55 12.34 4.72 27.06 8.0206 37.4 17.591 22.59 19.45 44.019 40.301 65.009 61.441 9.38 0.48 18.891 0.049 28.141 2.0891 7.7-18.63 28.99-22.429 46.37-26.459 5.24-12.11 2.2888-27.86 13.469-37.02 0.16-8.99-3.78-17.75-2.05-26.83 4.87-18.64-7.88-37.53-22.55-47.95-6.73 0.11-13.78-2.6106-19.58-4.0406zm-235.33 124.62c1.12 21.53-1.3303 44.23-13.07 62.83-21.73 21.2-40.02 46.61-66.2 62.87-19.13 10.37-40.03 16.899-60.08 25.059 21.33 13.28 42.29 27.23 63.48 40.75 33.21 18.17 68.13 33.281 99.78 54.231 33.21 16.78 57.521 46.429 86.891 68.009 11.09-8.55 22.409-17.981 31.459-28.841 13.97-49.74 30.111-101.15 22.741-153.39 2.16-24.08-19.25-39.2-34.35-54.53-18.49-15.79-35.02-33.661-53.05-49.941-20.31-20.21-50.66-23.57-77.6-27.05zm-176.82 351.19c-6.11 9.09-12.6 21.629-25.83 18.989-10.76 1.59-14.079-11.34-22.609-14.12-0.45 9.32 2.0691 22.3-7.5109 28.15-12.73 9.12-26.6-1.8488-39.17-4.1188-0.48 10 1.8212 22.959-6.5688 30.509-6.11 3.47-13.741 2.1794-20.531 2.3594 5.03 10.89 8.6603 23.591 2.0703 34.011 11.54 4.8 25.97-9.1706 37.85-0.2406 12.71 14.89 29.15-11.44 43.35-0.4797 5.16 11.43 20.33 10.58 30.05 8.4203 3.96-15.53 20.95-21.85 32.3-27.88-13.61-1.22-29.709-11.63-31.489-26.9 2.85-14.68 15.23-25.351 20.53-38.991-3.05-3.53-8.5606-8.2494-12.441-9.7094zm-5.9594 352.98c-8.9 2.49-17.55 13.15-7.8703 20.93 10.36 9.92 11.8 30.79-1 39.22 1.56 8.56 6.2397 16.69 7.8797 25.2 10.26-1.23 19.1-12.09 30.75-7.1797 15.88 2.32 19.97 19.55 22.38 32.85 7.59 1.74 12.341-7.4306 18.961-9.8406 12.78-9.31 31.259 0.3394 35.589 14.359 2.23 3.22 4.5412 13.771 9.9812 8.2609 13.92-15.61 36.71-11.61 54.05-21 9.72-5.78 12.3-18.991 9-29.191-1.39-10.48-12.151-22.13-1.7609-31.38 13.13-8.62 30.5 0.5703 44.17-7.1797 7.43-4.04 18.54-5.7903 23.37-11.67-52.65 3.54-103.14-14.99-154.84-21.58-29.2 7-63.929 16.33-90.659-1.8z"/>
</svg>
