<svg xmlns="http://www.w3.org/2000/svg" viewBox="0 0 120 120" role="img" aria-label="Astronaut">
  <rect x="39" y="48" width="42" height="42" rx="14" fill="#f4f7ff" stroke="#24304a" stroke-width="4"/>
  <circle cx="60" cy="39" r="25" fill="#f4f7ff" stroke="#24304a" stroke-width="4"/>
  <path d="M43 38c9-11 26-12 36 0v12c-10 9-26 9-36 0z" fill="#293a62"/>
  <rect x="50" y="68" width="20" height="10" rx="5" fill="#3f7dd9"/>
  <path d="M40 61l-17 11M80 61l17 11M47 88l-7 18M73 88l7 18" stroke="#f4f7ff" stroke-width="13" stroke-linecap="round"/>
  <path d="M40 61l-17 11M80 61l17 11M47 88l-7 18M73 88l7 18" stroke="#24304a" stroke-width="4" stroke-linecap="round"/>
</svg>
