<svg xmlns="http://www.w3.org/2000/svg" viewBox="0 0 120 120" role="img" aria-label="Earth">
  <defs><radialGradient id="g" cx="35%" cy="28%" r="70%"><stop stop-color="#bff4ff"/><stop offset=".55" stop-color="#2f8ee8"/><stop offset="1" stop-color="#0d3476"/></radialGradient></defs>
  <circle cx="60" cy="60" r="44" fill="url(#g)" stroke="#09235d" stroke-width="4"/>
  <path d="M34 41c12-11 20 5 30 0 7-4 15-3 19 4 5 9-6 14-15 13-7-1-11 4-10 10 1 9-11 11-18 4-9-9-18-19-6-31zM76 77c8-5 17-2 20 5-5 7-13 11-23 13-4-7-3-14 3-18z" fill="#45bd66"/>
  <path d="M32 72c12 1 20 4 26 10" fill="none" stroke="#fff" stroke-width="5" opacity=".35" stroke-linecap="round"/>
</svg>
