<svg xmlns="http://www.w3.org/2000/svg" viewBox="0 0 1600 900" role="img" aria-hidden="true"><defs><filter id="s" x="-20%" y="-20%" width="140%" height="140%"><feDropShadow dx="0" dy="4" stdDeviation="4" flood-color="#20314f" flood-opacity="0.18"/></filter><linearGradient id="shine" x1="0" x2="1" y1="0" y2="1"><stop stop-color="#fff" stop-opacity="0.65"/><stop offset="1" stop-color="#fff" stop-opacity="0"/></linearGradient></defs><rect width="1600" height="900" fill="#c9efff"/><path d="M0 470 C300 390 520 510 790 440 S1240 360 1600 450 V900 H0Z" fill="#96d56a"/><path d="M0 610 C270 560 520 640 820 580 S1250 520 1600 590 V900 H0Z" fill="#6fbd4c"/><path d="M0 760 C330 700 600 800 930 740 S1280 690 1600 745 V900 H0Z" fill="#d9b383"/><circle cx="1360" cy="135" r="68" fill="#ffda5e"/><g opacity="0.55" fill="#fff"><ellipse cx="250" cy="115" rx="80" ry="25"/><ellipse cx="315" cy="102" rx="55" ry="20"/><ellipse cx="1100" cy="180" rx="95" ry="28"/><ellipse cx="1168" cy="165" rx="58" ry="22"/></g><g transform="translate(180 310)"><rect x="0" y="120" width="270" height="160" fill="#b84136"/><path d="M-20 130 L135 15 L290 130 Z" fill="#8f2f2b"/><rect x="88" y="170" width="92" height="110" fill="#f3c35c"/><rect x="28" y="154" width="52" height="45" fill="#fff6d7"/><rect x="192" y="154" width="52" height="45" fill="#fff6d7"/></g><g stroke="#8b5f32" stroke-width="9" stroke-linecap="round"><path d="M770 650h520"/><path d="M790 610v86M900 610v86M1010 610v86M1120 610v86M1230 610v86"/></g></svg>