<svg xmlns="http://www.w3.org/2000/svg" viewBox="0 0 240 180" role="img" aria-hidden="true"><defs><filter id="s" x="-20%" y="-20%" width="140%" height="140%"><feDropShadow dx="0" dy="4" stdDeviation="4" flood-color="#20314f" flood-opacity="0.18"/></filter><linearGradient id="shine" x1="0" x2="1" y1="0" y2="1"><stop stop-color="#fff" stop-opacity="0.65"/><stop offset="1" stop-color="#fff" stop-opacity="0"/></linearGradient></defs><g transform=""><g filter="url(#s)"><ellipse cx="102" cy="104" rx="46" ry="35" fill="#c65e39"/><circle cx="152" cy="82" r="25" fill="#c65e39"/><path d="M143 58q8-24 18 0q6-21 17-2" fill="#d94136"/><path d="M66 92q-26-22-42 5q30 2 42 27" fill="#2868b4"/><path d="M63 101q-32-10-42 22q30-6 46 17" fill="#4db26a"/><path d="M174 82l22 10l-23 8z" fill="#f4a72c"/><circle cx="151" cy="77" r="4" fill="#18233b"/><ellipse cx="96" cy="104" rx="24" ry="17" fill="#2f8e86" opacity=".72"/><path d="M84 136v22M122 136v22" stroke="#d98b1e" stroke-width="7" stroke-linecap="round"/></g></g></svg>