<svg xmlns="http://www.w3.org/2000/svg" viewBox="0 0 240 180" role="img" aria-hidden="true"><defs><filter id="s" x="-20%" y="-20%" width="140%" height="140%"><feDropShadow dx="0" dy="4" stdDeviation="4" flood-color="#20314f" flood-opacity="0.18"/></filter><linearGradient id="shine" x1="0" x2="1" y1="0" y2="1"><stop stop-color="#fff" stop-opacity="0.65"/><stop offset="1" stop-color="#fff" stop-opacity="0"/></linearGradient></defs><g filter="url(#s)"><path d="M121 94v67" stroke="#3f8f50" stroke-width="10" stroke-linecap="round"/><g transform="translate(120 76)"><g fill="#ffd34c"><ellipse rx="13" ry="28" transform="rotate(0) translate(0 -31)"/><ellipse rx="13" ry="28" transform="rotate(45) translate(0 -31)"/><ellipse rx="13" ry="28" transform="rotate(90) translate(0 -31)"/><ellipse rx="13" ry="28" transform="rotate(135) translate(0 -31)"/><ellipse rx="13" ry="28" transform="rotate(180) translate(0 -31)"/><ellipse rx="13" ry="28" transform="rotate(225) translate(0 -31)"/><ellipse rx="13" ry="28" transform="rotate(270) translate(0 -31)"/><ellipse rx="13" ry="28" transform="rotate(315) translate(0 -31)"/></g><circle r="26" fill="#7b4f2d"/></g><path d="M116 122q-31-18-48 3q30 6 48-3M125 132q32-16 49 5q-31 5-49-5" fill="#4fa75f"/></g></svg>